<?xml version="1.0" encoding="iso-8859-1"?>
<!-- Uploaded to: SVG Repo, www.svgrepo.com, Generator: SVG Repo Mixer Tools -->
<svg version="1.1" id="Layer_1" xmlns="http://www.w3.org/2000/svg" xmlns:xlink="http://www.w3.org/1999/xlink" 
	 viewBox="0 0 512 512" xml:space="preserve">
<rect x="88.369" y="1.176" style="fill:#C9E8FA;" width="423.631" height="362.687"/>
<rect x="88.369" y="1.176" style="fill:#FD7052;" width="423.631" height="72.731"/>
<rect x="300.184" y="1.176" style="fill:#B6E0F7;" width="211.816" height="362.687"/>
<rect x="300.184" y="1.176" style="fill:#FF4F18;" width="211.816" height="72.731"/>
<g>
	<rect x="410.777" y="25.879" style="fill:#F4F4F4;" width="18.525" height="18.525"/>
	<rect x="439.792" y="25.879" style="fill:#F4F4F4;" width="18.525" height="18.525"/>
	<rect x="468.808" y="25.879" style="fill:#F4F4F4;" width="18.525" height="18.525"/>
</g>
<rect y="148.138" style="fill:#C9E8FA;" width="423.631" height="362.687"/>
<rect y="148.138" style="fill:#FD7052;" width="423.631" height="72.731"/>
<rect x="211.816" y="148.138" style="fill:#B6E0F7;" width="211.816" height="362.687"/>
<rect x="211.816" y="148.138" style="fill:#FF4F18;" width="211.816" height="72.731"/>
<g>
	<rect x="322.408" y="172.838" style="fill:#F4F4F4;" width="18.525" height="18.525"/>
	<rect x="351.424" y="172.838" style="fill:#F4F4F4;" width="18.525" height="18.525"/>
	<rect x="380.439" y="172.838" style="fill:#F4F4F4;" width="18.525" height="18.525"/>
</g>
<g>
	<rect x="162.19" y="348.791" style="fill:#57555C;" width="24.015" height="24.015"/>
	<rect x="199.813" y="348.791" style="fill:#57555C;" width="24.015" height="24.015"/>
</g>
<g>
	<rect x="211.816" y="348.791" style="fill:#3C3A41;" width="12.007" height="24.015"/>
	<rect x="237.424" y="348.791" style="fill:#3C3A41;" width="24.015" height="24.015"/>
</g>
</svg>